<mxfile host="app.diagrams.net" modified="2020-09-18T22:49:14.852Z" agent="5.0 (X11; Linux x86_64) AppleWebKit/537.36 (KHTML, like Gecko) Chrome/84.0.4147.89 Safari/537.36" etag="vZwMfVhWtQcbLnR1TlBa" version="13.7.3" type="github">
  <diagram id="_4ZGJ1ERenRfXPxDFYeA" name="Page-1">
    <mxGraphModel dx="1422" dy="801" grid="1" gridSize="10" guides="1" tooltips="1" connect="1" arrows="1" fold="1" page="1" pageScale="1" pageWidth="850" pageHeight="1100" math="0" shadow="0">
      <root>
        <mxCell id="0" />
        <mxCell id="1" parent="0" />
        <mxCell id="lVCEFa26e9WeMRIII4nK-1" value="«JEE»&lt;br&gt;&lt;b&gt;SAFiM&lt;/b&gt;" style="html=1;dropTarget=0;" parent="1" vertex="1">
          <mxGeometry x="10" y="10" width="180" height="90" as="geometry" />
        </mxCell>
        <mxCell id="lVCEFa26e9WeMRIII4nK-2" value="" style="shape=component;jettyWidth=8;jettyHeight=4;" parent="lVCEFa26e9WeMRIII4nK-1" vertex="1">
          <mxGeometry x="1" width="20" height="20" relative="1" as="geometry">
            <mxPoint x="-27" y="7" as="offset" />
          </mxGeometry>
        </mxCell>
        <mxCell id="lVCEFa26e9WeMRIII4nK-3" value="«PHP»&lt;br&gt;&lt;b&gt;SAEM&lt;/b&gt;" style="html=1;dropTarget=0;" parent="1" vertex="1">
          <mxGeometry x="210" y="10" width="180" height="90" as="geometry" />
        </mxCell>
        <mxCell id="lVCEFa26e9WeMRIII4nK-4" value="" style="shape=component;jettyWidth=8;jettyHeight=4;" parent="lVCEFa26e9WeMRIII4nK-3" vertex="1">
          <mxGeometry x="1" width="20" height="20" relative="1" as="geometry">
            <mxPoint x="-27" y="7" as="offset" />
          </mxGeometry>
        </mxCell>
        <mxCell id="lVCEFa26e9WeMRIII4nK-5" value="«.Net»&lt;br&gt;&lt;b&gt;SASCi&lt;/b&gt;" style="html=1;dropTarget=0;" parent="1" vertex="1">
          <mxGeometry x="410" y="10" width="180" height="90" as="geometry" />
        </mxCell>
        <mxCell id="lVCEFa26e9WeMRIII4nK-6" value="" style="shape=component;jettyWidth=8;jettyHeight=4;" parent="lVCEFa26e9WeMRIII4nK-5" vertex="1">
          <mxGeometry x="1" width="20" height="20" relative="1" as="geometry">
            <mxPoint x="-27" y="7" as="offset" />
          </mxGeometry>
        </mxCell>
        <mxCell id="lVCEFa26e9WeMRIII4nK-7" value="«Serviço»&lt;br&gt;&lt;b&gt;STUR&lt;/b&gt;" style="html=1;dropTarget=0;" parent="1" vertex="1">
          <mxGeometry x="610" y="10" width="180" height="90" as="geometry" />
        </mxCell>
        <mxCell id="lVCEFa26e9WeMRIII4nK-8" value="" style="shape=component;jettyWidth=8;jettyHeight=4;" parent="lVCEFa26e9WeMRIII4nK-7" vertex="1">
          <mxGeometry x="1" width="20" height="20" relative="1" as="geometry">
            <mxPoint x="-27" y="7" as="offset" />
          </mxGeometry>
        </mxCell>
        <mxCell id="lVCEFa26e9WeMRIII4nK-9" value="«Annotation»&lt;br&gt;&lt;b&gt;Módulo de Informações &lt;br&gt;Municipais Georreferenciadas&lt;/b&gt;" style="html=1;dropTarget=0;" parent="1" vertex="1">
          <mxGeometry x="10" y="170" width="180" height="90" as="geometry" />
        </mxCell>
        <mxCell id="lVCEFa26e9WeMRIII4nK-10" value="" style="shape=component;jettyWidth=8;jettyHeight=4;" parent="lVCEFa26e9WeMRIII4nK-9" vertex="1">
          <mxGeometry x="1" width="20" height="20" relative="1" as="geometry">
            <mxPoint x="-27" y="7" as="offset" />
          </mxGeometry>
        </mxCell>
        <mxCell id="lVCEFa26e9WeMRIII4nK-11" value="«Annotation»&lt;br&gt;&lt;b&gt;Módulo de Serviços &lt;br&gt;ao Cidadão&lt;/b&gt;" style="html=1;dropTarget=0;" parent="1" vertex="1">
          <mxGeometry x="210" y="170" width="180" height="90" as="geometry" />
        </mxCell>
        <mxCell id="lVCEFa26e9WeMRIII4nK-12" value="" style="shape=component;jettyWidth=8;jettyHeight=4;" parent="lVCEFa26e9WeMRIII4nK-11" vertex="1">
          <mxGeometry x="1" width="20" height="20" relative="1" as="geometry">
            <mxPoint x="-27" y="7" as="offset" />
          </mxGeometry>
        </mxCell>
        <mxCell id="lVCEFa26e9WeMRIII4nK-13" value="«Annotation»&lt;br&gt;&lt;b&gt;&amp;nbsp;Módulo de Gestão &lt;br&gt;Estratégica de Projetos&lt;/b&gt;" style="html=1;dropTarget=0;" parent="1" vertex="1">
          <mxGeometry x="410" y="170" width="180" height="90" as="geometry" />
        </mxCell>
        <mxCell id="lVCEFa26e9WeMRIII4nK-14" value="" style="shape=component;jettyWidth=8;jettyHeight=4;" parent="lVCEFa26e9WeMRIII4nK-13" vertex="1">
          <mxGeometry x="1" width="20" height="20" relative="1" as="geometry">
            <mxPoint x="-27" y="7" as="offset" />
          </mxGeometry>
        </mxCell>
        <mxCell id="lVCEFa26e9WeMRIII4nK-15" value="«Annotation»&lt;br&gt;&lt;b&gt;&amp;nbsp;Módulo de &lt;br&gt;Business Intelligence (BI)&lt;/b&gt;" style="html=1;dropTarget=0;" parent="1" vertex="1">
          <mxGeometry x="810" y="170" width="180" height="90" as="geometry" />
        </mxCell>
        <mxCell id="lVCEFa26e9WeMRIII4nK-16" value="" style="shape=component;jettyWidth=8;jettyHeight=4;" parent="lVCEFa26e9WeMRIII4nK-15" vertex="1">
          <mxGeometry x="1" width="20" height="20" relative="1" as="geometry">
            <mxPoint x="-27" y="7" as="offset" />
          </mxGeometry>
        </mxCell>
        <mxCell id="lVCEFa26e9WeMRIII4nK-17" value="«Annotation»&lt;br&gt;&lt;b&gt;&amp;nbsp;&amp;nbsp;Módulo de Integração Geral&lt;/b&gt;" style="html=1;dropTarget=0;" parent="1" vertex="1">
          <mxGeometry x="610" y="170" width="180" height="90" as="geometry" />
        </mxCell>
        <mxCell id="lVCEFa26e9WeMRIII4nK-18" value="" style="shape=component;jettyWidth=8;jettyHeight=4;" parent="lVCEFa26e9WeMRIII4nK-17" vertex="1">
          <mxGeometry x="1" width="20" height="20" relative="1" as="geometry">
            <mxPoint x="-27" y="7" as="offset" />
          </mxGeometry>
        </mxCell>
      </root>
    </mxGraphModel>
  </diagram>
</mxfile>
